<?xml version="1.0" encoding="utf-8"?>
<!-- Generator: Adobe Illustrator 16.0.0, SVG Export Plug-In . SVG Version: 6.00 Build 0)  -->
<!DOCTYPE svg PUBLIC "-//W3C//DTD SVG 1.1//EN" "http://www.w3.org/Graphics/SVG/1.1/DTD/svg11.dtd">
<svg version="1.1" xmlns="http://www.w3.org/2000/svg" xmlns:xlink="http://www.w3.org/1999/xlink" x="0px" y="0px" width="512px"
	 height="360px" viewBox="0 0 512 360" enable-background="new 0 0 512 360" xml:space="preserve">
<g id="outline_and_keys">
	<path stroke="#FFFFFF" stroke-miterlimit="10" d="M453.667,281.521c0,10.758-7.728,19.479-17.26,19.479H77.593
		c-9.532,0-17.259-8.722-17.259-19.479V90.146c0-10.757,7.727-19.479,17.259-19.479h358.814c9.532,0,17.26,8.722,17.26,19.479
		V281.521z"/>
	<g class="macrobutton" keyid="1">
		<path fill="none" stroke="#FFFFFF" stroke-miterlimit="10" d="M155.246,284.513c0,1.657-1.343,3-3,3H79.201c-1.657,0-3-1.343-3-3
			v-73.045c0-1.657,1.343-3,3-3h73.045c1.657,0,3,1.343,3,3V284.513z"/>
		<path fill="none" stroke="#FFFFFF" stroke-miterlimit="10" d="M144.246,266.014c0,1.196-0.969,2.165-2.165,2.165H89.367
			c-1.196,0-2.166-0.969-2.166-2.165v-52.715c0-1.195,0.969-2.165,2.166-2.165h52.714c1.196,0,2.165,0.97,2.165,2.165V266.014z"/>
		<line fill="none" stroke="#FFFFFF" stroke-miterlimit="10" x1="76.909" y1="286.446" x2="87.758" y2="267.451"/>
		<line fill="none" stroke="#FFFFFF" stroke-miterlimit="10" x1="143.689" y1="267.451" x2="154.538" y2="286.446"/>
		<line fill="none" stroke="#FFFFFF" stroke-miterlimit="10" x1="76.909" y1="209.554" x2="87.758" y2="211.861"/>
		<line fill="none" stroke="#FFFFFF" stroke-miterlimit="10" x1="154.118" y1="209.554" x2="143.689" y2="211.861"/>
	</g>
	<g class="macrobutton" keyid="2">
		<path fill="none" stroke="#FFFFFF" stroke-miterlimit="10" d="M251.406,284.969c0,1.657-1.344,3-3,3h-73.045c-1.657,0-3-1.343-3-3
			v-73.045c0-1.657,1.343-3,3-3h73.045c1.656,0,3,1.343,3,3V284.969z"/>
		<path fill="none" stroke="#FFFFFF" stroke-miterlimit="10" d="M240.406,266.47c0,1.196-0.969,2.165-2.165,2.165h-52.714
			c-1.196,0-2.166-0.969-2.166-2.165v-52.715c0-1.195,0.969-2.165,2.166-2.165h52.714c1.196,0,2.165,0.97,2.165,2.165V266.47z"/>
		<line fill="none" stroke="#FFFFFF" stroke-miterlimit="10" x1="173.069" y1="286.902" x2="183.918" y2="267.907"/>
		<line fill="none" stroke="#FFFFFF" stroke-miterlimit="10" x1="239.849" y1="267.907" x2="250.698" y2="286.902"/>
		<line fill="none" stroke="#FFFFFF" stroke-miterlimit="10" x1="173.069" y1="210.01" x2="183.918" y2="212.317"/>
		<line fill="none" stroke="#FFFFFF" stroke-miterlimit="10" x1="250.278" y1="210.01" x2="239.849" y2="212.317"/>
	</g>
	<g class="macrobutton" keyid="3">
		<path fill="none" stroke="#FFFFFF" stroke-miterlimit="10" d="M345.951,284.969c0,1.657-1.343,3-3,3h-73.045c-1.656,0-3-1.343-3-3
			v-73.045c0-1.657,1.344-3,3-3h73.045c1.657,0,3,1.343,3,3V284.969z"/>
		<path fill="none" stroke="#FFFFFF" stroke-miterlimit="10" d="M334.951,266.47c0,1.196-0.969,2.165-2.164,2.165h-52.715
			c-1.196,0-2.166-0.969-2.166-2.165v-52.715c0-1.195,0.97-2.165,2.166-2.165h52.715c1.195,0,2.164,0.97,2.164,2.165V266.47z"/>
		<line fill="none" stroke="#FFFFFF" stroke-miterlimit="10" x1="267.614" y1="286.902" x2="278.463" y2="267.907"/>
		<line fill="none" stroke="#FFFFFF" stroke-miterlimit="10" x1="334.395" y1="267.907" x2="345.244" y2="286.902"/>
		<line fill="none" stroke="#FFFFFF" stroke-miterlimit="10" x1="267.614" y1="210.01" x2="278.463" y2="212.317"/>
		<line fill="none" stroke="#FFFFFF" stroke-miterlimit="10" x1="344.824" y1="210.01" x2="334.395" y2="212.317"/>
	</g>
	<g class="macrobutton" keyid="4">
		<path fill="none" stroke="#FFFFFF" stroke-miterlimit="10" d="M440.824,284.969c0,1.657-1.343,3-3,3h-73.045c-1.656,0-3-1.343-3-3
			v-73.045c0-1.657,1.344-3,3-3h73.045c1.657,0,3,1.343,3,3V284.969z"/>
		<path fill="none" stroke="#FFFFFF" stroke-miterlimit="10" d="M429.824,266.47c0,1.196-0.969,2.165-2.164,2.165h-52.715
			c-1.196,0-2.166-0.969-2.166-2.165v-52.715c0-1.195,0.97-2.165,2.166-2.165h52.715c1.195,0,2.164,0.97,2.164,2.165V266.47z"/>
		<line fill="none" stroke="#FFFFFF" stroke-miterlimit="10" x1="362.487" y1="286.902" x2="373.336" y2="267.907"/>
		<line fill="none" stroke="#FFFFFF" stroke-miterlimit="10" x1="429.268" y1="267.907" x2="440.117" y2="286.902"/>
		<line fill="none" stroke="#FFFFFF" stroke-miterlimit="10" x1="362.487" y1="210.01" x2="373.336" y2="212.317"/>
		<line fill="none" stroke="#FFFFFF" stroke-miterlimit="10" x1="439.697" y1="210.01" x2="429.268" y2="212.317"/>
	</g>
</g>
<g id="mini-usb">
	<g>
		<rect x="390.209" y="61.954" stroke="#FFFFFF" stroke-miterlimit="10" width="32.874" height="40.861"/>
		<polyline fill="none" stroke="#FFFFFF" stroke-miterlimit="10" points="413.328,67.137 411.139,83.036 401.576,83.036 
			399.963,67.137 		"/>
		<polyline fill="none" stroke="#FFFFFF" stroke-miterlimit="10" points="417.015,95.824 410.908,95.824 411.196,95.824 
			408.95,90.986 403.766,90.986 402.037,95.824 397.429,95.824 		"/>
		<polyline fill="none" stroke="#FFFFFF" stroke-miterlimit="10" points="396.469,83.539 396.469,67.947 393.833,67.947 
			393.627,67.947 393.627,83.539 		"/>
		<polyline fill="none" stroke="#FFFFFF" stroke-miterlimit="10" points="419.396,83.539 419.396,67.947 416.76,67.947 
			416.554,67.947 416.554,83.539 		"/>
		<rect x="388.039" y="74.684" stroke="#FFFFFF" stroke-miterlimit="10" width="2.17" height="4.32"/>
		<rect x="388.039" y="97.092" stroke="#FFFFFF" stroke-miterlimit="10" width="2.17" height="4.147"/>
		<rect x="423.083" y="97.092" stroke="#FFFFFF" stroke-miterlimit="10" width="2.227" height="4.147"/>
		<rect x="423.083" y="74.684" stroke="#FFFFFF" stroke-miterlimit="10" width="2.227" height="4.32"/>
	</g>
</g>
<g id="silk">
	<g>
		<path fill="#FFFFFF" d="M387.642,137.54c0-0.561,0.406-0.953,1.009-0.953c0.588,0,0.994,0.392,0.994,0.953
			c0,0.603-0.406,0.98-0.994,0.98C388.048,138.52,387.642,138.142,387.642,137.54z M387.838,139.949h1.61v7.718h-1.61V139.949z"/>
		<path fill="#FFFFFF" d="M391.87,139.949h1.316l0.141,1.093h0.027c0.673-0.714,1.429-1.275,2.396-1.275
			c1.148,0,1.779,0.532,2.115,1.415c0.771-0.813,1.541-1.415,2.508-1.415c1.61,0,2.367,1.093,2.367,3.054v4.847h-1.625v-4.65
			c0-1.331-0.393-1.849-1.274-1.849c-0.519,0-1.093,0.336-1.737,1.037v5.463h-1.611v-4.65c0-1.331-0.406-1.849-1.288-1.849
			c-0.519,0-1.093,0.336-1.724,1.037v5.463h-1.61V139.949z"/>
		<path fill="#FFFFFF" d="M404.959,144.81v-4.861h1.625v4.665c0,1.317,0.393,1.849,1.289,1.849c0.714,0,1.219-0.336,1.849-1.148
			v-5.365h1.625v7.718h-1.331l-0.126-1.163h-0.042c-0.7,0.813-1.457,1.359-2.507,1.359
			C405.688,147.863,404.959,146.771,404.959,144.81z"/>
		<path fill="#FFFFFF" d="M412.939,146.785l0.771-1.051c0.672,0.546,1.345,0.896,2.171,0.896c0.911,0,1.345-0.448,1.345-1.037
			c0-0.7-0.854-1.008-1.694-1.331c-1.023-0.392-2.157-0.938-2.157-2.241c0-1.289,1.036-2.255,2.745-2.255
			c1.022,0,1.891,0.42,2.493,0.911l-0.742,0.995c-0.546-0.392-1.093-0.672-1.709-0.672c-0.868,0-1.261,0.42-1.261,0.952
			c0,0.645,0.757,0.896,1.611,1.219c1.064,0.406,2.255,0.883,2.255,2.325c0,1.303-1.022,2.368-2.928,2.368
			C414.774,147.863,413.682,147.401,412.939,146.785z"/>
		<path fill="#FFFFFF" d="M420.472,145.846v-9.343h1.61v9.427c0,0.434,0.183,0.588,0.379,0.588c0.069,0,0.126,0,0.28-0.028
			l0.195,1.219c-0.195,0.084-0.462,0.154-0.868,0.154C420.906,147.863,420.472,147.107,420.472,145.846z"/>
		<path fill="#FFFFFF" d="M424.195,145.622c0-1.667,1.4-2.521,4.608-2.872c-0.014-0.883-0.336-1.667-1.471-1.667
			c-0.813,0-1.569,0.364-2.228,0.784l-0.603-1.092c0.799-0.504,1.878-1.009,3.11-1.009c1.919,0,2.802,1.205,2.802,3.264v4.637
			h-1.317l-0.126-0.882h-0.056c-0.7,0.602-1.527,1.079-2.451,1.079C425.134,147.863,424.195,146.98,424.195,145.622z
			 M428.804,145.664v-1.877c-2.283,0.266-3.054,0.854-3.054,1.708c0,0.771,0.519,1.079,1.205,1.079
			C427.627,146.574,428.174,146.252,428.804,145.664z"/>
		<path fill="#FFFFFF" d="M434.164,146.869h-0.056l-0.141,0.798h-1.274v-11.164h1.61v2.956l-0.056,1.317
			c0.673-0.588,1.485-1.009,2.297-1.009c1.947,0,3.054,1.541,3.054,3.922c0,2.647-1.582,4.174-3.319,4.174
			C435.579,147.863,434.809,147.499,434.164,146.869z M437.932,143.717c0-1.611-0.518-2.605-1.807-2.605
			c-0.603,0-1.19,0.322-1.821,0.938v3.768c0.589,0.504,1.205,0.687,1.667,0.687C437.092,146.504,437.932,145.51,437.932,143.717z"/>
	</g>
	<circle fill="#FFFFFF" cx="438.125" cy="104.103" r="4.938"/>
	<circle fill="#FFFFFF" cx="438.125" cy="115.5" r="4.938"/>
	<g>
		<path fill="#FFFFFF" d="M142.939,199.48h2.593v-7.876h-2.113v-1.169c1.104-0.207,1.889-0.479,2.577-0.896h1.393v9.94h2.289V201
			h-6.739V199.48z"/>
	</g>
	<g>
		<path fill="#FFFFFF" d="M240.553,199.928c3.282-3.218,5.25-5.267,5.25-7.06c0-1.249-0.656-2.081-1.985-2.081
			c-0.913,0-1.681,0.592-2.321,1.313l-1.04-1.023c1.008-1.105,2.049-1.762,3.601-1.762c2.161,0,3.554,1.377,3.554,3.457
			c0,2.098-1.921,4.211-4.386,6.771c0.608-0.064,1.36-0.128,1.937-0.128h3.009V201h-7.619V199.928z"/>
	</g>
	<g>
		<path fill="#FFFFFF" d="M334.842,200.592l0.896-1.186c0.705,0.689,1.568,1.281,2.785,1.281c1.328,0,2.225-0.704,2.225-1.857
			c0-1.264-0.816-2.064-3.473-2.064v-1.377c2.32,0,3.089-0.848,3.089-1.952c0-1.024-0.688-1.648-1.809-1.648
			c-0.912,0-1.665,0.448-2.353,1.12l-0.961-1.152c0.944-0.848,2.018-1.44,3.377-1.44c2.113,0,3.618,1.089,3.618,2.978
			c0,1.328-0.8,2.209-2.032,2.672v0.08c1.344,0.337,2.416,1.329,2.416,2.882c0,2.065-1.776,3.297-3.938,3.297
			C336.827,202.224,335.643,201.472,334.842,200.592z"/>
	</g>
	<g>
		<path fill="#FFFFFF" d="M433.676,198.975h-5.105v-1.248l4.689-7.187h2.145v6.995h1.488v1.439h-1.488V202h-1.729V198.975z
			 M433.676,194.638c0-0.624,0.048-1.665,0.08-2.306h-0.064c-0.287,0.576-0.607,1.121-0.943,1.713l-2.306,3.49h3.233V194.638z"/>
	</g>
	<g>
		<path fill="#FFFFFF" d="M108.451,97.67h1.071l1.951,5.893h-0.983l-0.496-1.671h-2.047l-0.496,1.671H106.5L108.451,97.67z
			 M109.77,101.156l-0.232-0.792c-0.191-0.64-0.368-1.295-0.551-1.959h-0.032c-0.176,0.672-0.36,1.319-0.552,1.959l-0.232,0.792
			H109.77z"/>
		<path fill="#FFFFFF" d="M116.202,102.075l-0.583,0.328c-0.544-0.704-1.343-1.416-2.063-1.879c0.72-0.464,1.519-1.176,2.063-1.879
			l0.583,0.328c-0.328,0.456-0.808,0.936-1.191,1.215h5.941v0.671h-5.941C115.395,101.14,115.875,101.62,116.202,102.075z"/>
		<path fill="#FFFFFF" d="M123.851,97.67h1.072l1.071,2.982c0.136,0.384,0.264,0.792,0.392,1.183h0.04
			c0.136-0.392,0.256-0.799,0.384-1.183l1.056-2.982h1.079v5.893h-0.863v-2.91c0-0.528,0.072-1.288,0.128-1.823h-0.04l-0.472,1.359
			l-1.023,2.806h-0.576l-1.032-2.806l-0.472-1.359h-0.032c0.056,0.536,0.128,1.295,0.128,1.823v2.91h-0.84V97.67z"/>
		<path fill="#FFFFFF" d="M130.164,100.596c0-1.903,1.055-3.03,2.566-3.03c1.52,0,2.567,1.135,2.567,3.03s-1.047,3.078-2.567,3.078
			C131.219,103.674,130.164,102.491,130.164,100.596z M134.345,100.596c0-1.375-0.64-2.223-1.615-2.223
			c-0.975,0-1.607,0.847-1.607,2.223c0,1.375,0.632,2.263,1.607,2.263C133.706,102.859,134.345,101.971,134.345,100.596z"/>
		<path fill="#FFFFFF" d="M136.523,97.67h1.527c1.807,0,2.838,0.999,2.838,2.926c0,1.919-1.031,2.966-2.791,2.966h-1.575V97.67z
			 M137.986,102.803c1.263,0,1.943-0.743,1.943-2.207c0-1.471-0.68-2.167-1.943-2.167h-0.536v4.374H137.986z"/>
		<path fill="#FFFFFF" d="M142.115,97.67h3.479v0.783h-2.551v1.639h2.159v0.784h-2.159v1.895h2.639v0.792h-3.566V97.67z"/>
		<path fill="#FFFFFF" d="M153.009,98.973l0.583-0.328c0.544,0.704,1.343,1.416,2.063,1.879c-0.72,0.463-1.519,1.175-2.063,1.879
			l-0.583-0.328c0.328-0.456,0.808-0.936,1.191-1.215h-5.941v-0.671h5.941C153.816,99.909,153.336,99.429,153.009,98.973z"/>
		<path fill="#FFFFFF" d="M158.515,97.67h1.831c1.199,0,2.071,0.392,2.071,1.447c0,0.567-0.304,1.103-0.839,1.279v0.04
			c0.672,0.136,1.159,0.6,1.159,1.399c0,1.167-0.943,1.727-2.254,1.727h-1.967V97.67z M160.234,100.132
			c0.896,0,1.271-0.336,1.271-0.887c0-0.608-0.416-0.848-1.248-0.848h-0.815v1.735H160.234z M160.378,102.835
			c0.919,0,1.447-0.328,1.447-1.047c0-0.656-0.512-0.952-1.447-0.952h-0.936v1.999H160.378z"/>
	</g>
	<g>
		<path fill="#FFFFFF" d="M118.938,110.805h1.339l2.439,7.366h-1.229l-0.62-2.089h-2.559l-0.62,2.089H116.5L118.938,110.805z
			 M120.588,115.163l-0.29-0.99c-0.24-0.799-0.459-1.619-0.689-2.448h-0.04c-0.22,0.839-0.45,1.649-0.689,2.448l-0.29,0.99H120.588z
			"/>
	</g>
	<g>
		<path fill="#FFFFFF" d="M116.356,125.639h2.289c1.499,0,2.588,0.49,2.588,1.809c0,0.71-0.38,1.379-1.049,1.599v0.05
			c0.839,0.17,1.449,0.75,1.449,1.749c0,1.459-1.179,2.159-2.818,2.159h-2.459V125.639z M118.505,128.717
			c1.12,0,1.589-0.42,1.589-1.109c0-0.76-0.52-1.06-1.559-1.06h-1.02v2.169H118.505z M118.686,132.095
			c1.149,0,1.809-0.41,1.809-1.309c0-0.819-0.64-1.189-1.809-1.189h-1.169v2.499H118.686z"/>
	</g>
</g>
<g id="SMTs">
	<rect x="186.167" y="104.504" stroke="#FFFFFF" stroke-miterlimit="10" width="45.833" height="16.167"/>
	<rect x="190.833" y="141.338" stroke="#FFFFFF" stroke-miterlimit="10" width="7.833" height="15.5"/>
	<rect x="201" y="141.338" stroke="#FFFFFF" stroke-miterlimit="10" width="8.083" height="15.5"/>
	<rect x="211.667" y="141.338" stroke="#FFFFFF" stroke-miterlimit="10" width="7.667" height="15.5"/>
	<rect x="221.833" y="141.338" stroke="#FFFFFF" stroke-miterlimit="10" width="7.333" height="15.5"/>
	<rect x="66" y="110.338" stroke="#FFFFFF" stroke-miterlimit="10" width="7.5" height="16.167"/>
	<rect x="76.833" y="110.338" stroke="#FFFFFF" stroke-miterlimit="10" width="7.833" height="16.167"/>
	<rect x="264.667" y="97.838" stroke="#FFFFFF" stroke-miterlimit="10" width="17.833" height="8.333"/>
	<rect x="312.5" y="97.838" stroke="#FFFFFF" stroke-miterlimit="10" width="15.834" height="8.333"/>
	<rect x="290.334" y="97.838" stroke="#FFFFFF" stroke-miterlimit="10" width="16.166" height="16.167"/>
	<rect x="287.188" y="99.375" stroke="#FFFFFF" stroke-miterlimit="10" width="2.75" height="4.188"/>
	<rect x="287.188" y="109.063" stroke="#FFFFFF" stroke-miterlimit="10" width="2.75" height="4.188"/>
	<rect x="306.5" y="99.375" stroke="#FFFFFF" stroke-miterlimit="10" width="2.75" height="4.188"/>
	<rect x="306.5" y="109.313" stroke="#FFFFFF" stroke-miterlimit="10" width="2.75" height="3.938"/>
	<circle stroke="#FFFFFF" stroke-miterlimit="10" cx="298.417" cy="105.921" r="5.234"/>
</g>
<g id="switch">
	<rect class="macroswitch" fill="black" x="103.701" y="70.843" stroke="#FFFFFF" stroke-miterlimit="10" width="59.631" height="23.082"/>
	<rect x="140.96" y="53.75" stroke="#FFFFFF" stroke-miterlimit="10" width="10.696" height="17.093"/>
	<rect x="100.929" y="78.804" stroke="#FFFFFF" stroke-miterlimit="10" width="2.772" height="6.721"/>
	<rect x="163.332" y="78.804" stroke="#FFFFFF" stroke-miterlimit="10" width="2.997" height="6.721"/>
	<rect x="186.167" y="76" stroke="#FFFFFF" stroke-miterlimit="10" width="16.833" height="7.375"/>
</g>
<g id="LED">
	<rect x="94" y="110.338" stroke="#FFFFFF" stroke-miterlimit="10" width="18.167" height="8.667"/>
	<rect x="94" y="125.338" fill="#E60012" stroke="#FFFFFF" stroke-miterlimit="10" width="18.167" height="9.5"/>
	<rect x="64.667" y="131.004" fill="#FFFFFF" stroke="#FFFFFF" stroke-miterlimit="10" width="8.833" height="18.167"/>
</g>
</svg>
